IKResults
version=1
nRows=12
nColumns=42
inDegrees=yes

Units are S.I. units (second, meters, Newtons, ...)
Angles are in degrees.

endheader
time	pelvis_tilt	pelvis_list	pelvis_rotation	pelvis_tx	pelvis_ty	pelvis_tz	hip_flexion_r	hip_adduction_r	hip_rotation_r	knee_angle_r	knee_adduction_r	knee_angle_r_beta	ankle_angle_r	subtalar_angle_r	mtp_angle_r	hip_flexion_l	hip_adduction_l	hip_rotation_l	knee_angle_l	knee_adduction_l	knee_angle_l_beta	ankle_angle_l	subtalar_angle_l	mtp_angle_l	lumbar_extension	lumbar_bending	lumbar_rotation	arm_flex_r	arm_add_r	arm_rot_r	elbow_flex_r	pro_sup_r	wrist_flex_r	wrist_dev_r	arm_flex_l	arm_add_l	arm_rot_l	elbow_flex_l	pro_sup_l	wrist_flex_l	wrist_dev_l
     44.10000000	     11.43315564	     -6.22470983	     -0.03888401	      0.88030990	      0.96430148	     -0.01395639	     -1.90749110	      5.17574514	     -0.02035381	     18.28796327	      6.47602164	      0.31918517	     10.01623256	     -8.76374394	      5.64188851	     10.27765372	    -20.34993780	     -6.24072080	     74.09407708	      5.09547410	      1.29318560	     -3.76726470	     -8.33475993	      0.05782315	    -30.31102437	      4.02048892	      4.80914823	     -2.57540481	    -23.26094481	     37.28386961	    145.27120165	     88.32490654	      0.00000000	      0.00000000	    -24.81106655	     -9.90450441	     23.64184789	    124.23724892	     87.55609028	      0.00000000	      0.00000000
     44.10700000	     11.42155156	     -6.09069578	      0.05477081	      0.87990935	      0.96515440	     -0.01342851	     -2.65907580	      5.09588172	      0.04354550	     17.65356334	      6.47602164	      0.30811281	     10.09220794	     -8.73885361	      5.61639620	     11.13873078	    -20.10822513	     -6.08327028	     73.67849222	      5.09547410	      1.28593228	     -2.97466021	     -8.27071109	     -0.07242435	    -30.32034870	      3.86716281	      4.86018362	     -2.10672754	    -23.35938441	     37.52373989	    145.76626533	     88.34324959	      0.00000000	      0.00000000	    -25.22220662	     -9.92509659	     23.37082750	    124.20021502	     87.61223776	      0.00000000	      0.00000000
     44.11300000	     11.99749864	     -5.93092128	      0.57169881	      0.87937559	      0.96670394	     -0.01349180	     -4.21290866	      4.99632682	     -0.31290180	     16.68368801	      6.47602164	      0.29118529	     10.00512545	     -8.71416705	      5.51794573	     11.47407034	    -19.78518019	     -5.63169207	     73.10052185	      5.09547410	      1.27584479	     -2.34559387	     -7.95840999	      0.21291709	    -31.00073112	      3.82285747	      4.36726371	     -1.24623301	    -23.39970068	     38.07348900	    146.05466205	     88.36708011	      0.00000000	      0.00000000	    -25.73347404	     -9.91612115	     22.88603402	    124.57251964	     87.68108716	      0.00000000	      0.00000000
     44.12000000	     11.95271158	     -5.71413470	      0.41853819	      0.87925251	      0.96751062	     -0.01254337	     -4.91986349	      4.80426839	     -0.06732344	     16.10006803	      6.47602164	      0.28099920	     10.17283061	     -8.64803247	      5.45695934	     12.13653475	    -19.50027175	     -5.81982949	     72.37489286	      5.09547410	      1.26318018	     -1.67752775	     -7.83042438	      0.12942914	    -30.93230801	      3.47580984	      4.65234824	     -0.92093400	    -23.36556113	     38.19880851	    146.38686277	     88.39038993	      0.00000000	      0.00000000	    -26.15817033	    -10.04439304	     22.69092856	    124.10279327	     87.49949051	      0.00000000	      0.00000000
     44.12700000	     12.57574757	     -5.16657287	      0.00725470	      0.87943508	      0.96948926	     -0.01142205	     -6.46675369	      4.21071635	      0.42888170	     15.34994954	      6.47602164	      0.26790716	     10.13060357	     -8.61534284	      5.17608532	     11.59817040	    -18.87827001	     -6.63491578	     71.07707772	      5.09547410	      1.24052903	     -1.02716046	     -7.71683512	      0.39475470	    -31.60051536	      2.64105840	      4.92884310	     -0.41800835	    -23.28450973	     38.40225945	    146.60141199	     88.42972462	      0.00000000	      0.00000000	    -26.51235276	    -10.12447349	     22.50212371	    123.99586636	     87.66481455	      0.00000000	      0.00000000
     44.13300000	     12.85430232	     -4.78997266	     -0.11002748	      0.87940668	      0.97068047	     -0.01083408	     -7.59813143	      3.80425807	      0.60452622	     14.61250106	      6.47602164	      0.25503626	     10.10522490	     -8.52158474	      4.84575845	     11.69677946	    -18.34075719	     -6.98060456	     69.92586444	      5.09547410	      1.22043657	     -0.65277165	     -7.90583148	      0.62787013	    -31.91553032	      2.14930200	      5.01748971	     -0.01219515	    -23.23089312	     38.56290978	    146.88074724	     88.45492039	      0.00000000	      0.00000000	    -26.87159140	    -10.15997159	     22.25449442	    124.10720514	     87.65844133	      0.00000000	      0.00000000
     44.14000000	     12.91384448	     -4.73828080	      0.18183426	      0.87887973	      0.97107801	     -0.01043395	     -8.41596849	      3.83874293	      0.42987159	     13.97130936	      6.47602164	      0.24384535	     10.08760559	     -8.53359160	      4.48730753	     12.38293787	    -18.15172802	     -6.70518801	     68.92502723	      5.09547410	      1.20296866	     -0.07081584	     -7.94543969	      0.80726109	    -32.01886811	      2.12429885	      4.87435844	      0.45117698	    -23.16977091	     38.76196903	    147.12034209	     88.48422469	      0.00000000	      0.00000000	    -27.21517673	    -10.22986610	     22.04445118	    124.79764900	     87.62901121	      0.00000000	      0.00000000
     44.14700000	     12.72941103	     -4.69361757	      0.28129543	      0.87830841	      0.97114973	     -0.00994913	     -8.86301045	      3.84381676	      0.49256714	     13.52773877	      6.47602164	      0.23610358	     10.27763398	     -8.49597422	      4.43605254	     13.23459689	    -17.98566425	     -6.65284671	     67.87506868	      5.09547410	      1.18464343	      0.42066465	     -8.02616827	      0.77532088	    -31.86754888	      2.06936017	      4.96007593	      0.77260151	    -23.11117077	     38.85217997	    147.34410050	     88.49223458	      0.00000000	      0.00000000	    -27.46483814	    -10.29008256	     21.90043737	    124.85805784	     87.61116429	      0.00000000	      0.00000000
     44.15300000	     12.93446655	     -4.48918449	      0.57263824	      0.87766206	      0.97165661	     -0.00970913	     -9.82317306	      3.71245707	      0.34167283	     12.91669212	      6.47602164	      0.22543881	     10.36032994	     -8.50229312	      4.43796114	     13.59807070	    -17.60941895	     -6.70418304	     66.49069050	      5.09547410	      1.16048147	      0.86925685	     -8.11310713	      1.26607203	    -32.16886058	      1.91421553	      4.71859269	      1.24482661	    -23.01653767	     39.02279448	    147.47260908	     88.53845890	      0.00000000	      0.00000000	    -27.78066405	    -10.42938070	     21.70737382	    125.12559795	     87.66382720	      0.00000000	      0.00000000
     44.16000000	     12.85505479	     -4.43371356	      0.74625458	      0.87707748	      0.97166127	     -0.00933977	    -10.42405267	      3.72189030	      0.30013970	     12.37950081	      6.47602164	      0.21606305	     10.44179783	     -8.47349894	      4.40208913	     14.21590587	    -17.42777459	     -6.68620611	     65.19164795	      5.09547410	      1.13780890	      1.32534315	     -8.23265512	      1.75598378	    -32.13544731	      1.85527872	      4.65077728	      1.61604352	    -22.92846690	     39.19606536	    147.58857613	     88.55773197	      0.00000000	      0.00000000	    -28.03083911	    -10.44284851	     21.45230348	    125.29069653	     87.65551561	      0.00000000	      0.00000000
     44.16700000	     12.60940334	     -4.47839718	      0.85104796	      0.87647321	      0.97128978	     -0.00903741	    -10.72286856	      3.83247859	      0.36318108	     12.10601183	      6.47602164	      0.21128977	     10.70475520	     -8.47489447	      4.35665417	     15.00803002	    -17.33895968	     -6.72916492	     63.82815998	      5.09547410	      1.11401155	      1.83526815	     -8.29378886	      1.81961204	    -31.90905265	      1.92005859	      4.75590154	      1.83607541	    -22.86606971	     39.24876496	    147.76731815	     88.55463653	      0.00000000	      0.00000000	    -28.21228448	    -10.45768939	     21.36086601	    125.38892246	     87.63728409	      0.00000000	      0.00000000
     44.17300000	     12.57319483	     -4.27021478	      1.04096834	      0.87587556	      0.97140006	     -0.00880293	    -11.40782855	      3.68373501	      0.30243154	     11.49225877	      6.47602164	      0.20057775	     10.75179499	     -8.51892968	      4.48579170	     15.47124879	    -16.78276844	     -6.58997029	     62.17195814	      5.09547410	      1.08510537	      2.24729911	     -8.50175273	      2.40361644	    -31.95988362	      1.72530427	      4.59344518	      2.11847825	    -22.73306812	     39.39345252	    147.81086079	     88.58798708	      0.00000000	      0.00000000	    -28.37008459	    -10.57434990	     21.20974324	    125.42394288	     87.64480127	      0.00000000	      0.00000000
